<?xml version="1.0" standalone="no"?>
<!DOCTYPE svg PUBLIC "-//W3C//DTD SVG 20010904//EN"
 "http://www.w3.org/TR/2001/REC-SVG-20010904/DTD/svg10.dtd">
<svg version="1.0" xmlns="http://www.w3.org/2000/svg"
 width="200.000000pt" height="200.000000pt" viewBox="0 0 200.000000 200.000000"
 preserveAspectRatio="xMidYMid meet">

<g transform="translate(0.000000,200.000000) scale(0.100000,-0.100000)"
fill="#000000" stroke="none">
<path d="M25 1001 l0 -121 50 0 c72 1 127 29 150 76 16 34 16 42 4 78 -20 57
-56 80 -137 84 l-67 4 0 -121z m124 83 c13 -9 29 -31 37 -50 29 -69 -13 -134
-87 -134 l-39 0 0 100 0 100 33 0 c18 0 43 -7 56 -16z"/>
<path d="M353 1017 c-55 -133 -59 -145 -45 -132 6 6 27 46 46 90 l35 79 13
-29 c10 -22 10 -29 0 -33 -19 -6 -14 -22 7 -22 13 0 24 -14 35 -45 14 -36 22
-45 42 -45 29 0 29 1 4 42 -27 44 -26 48 15 48 50 0 44 18 -7 22 -42 3 -43 4
-67 66 -13 34 -27 62 -30 62 -3 0 -25 -46 -48 -103z"/>
<path d="M550 1113 c0 -5 4 -13 9 -18 4 -6 25 -53 45 -105 21 -52 41 -99 46
-103 4 -5 27 40 50 100 58 147 56 141 38 123 -8 -8 -27 -48 -42 -88 -16 -40
-31 -70 -34 -67 -4 3 -20 41 -37 83 -24 60 -36 78 -53 80 -12 2 -22 -1 -22 -5z"/>
<path d="M830 1000 l0 -120 25 0 25 0 0 120 0 120 -25 0 -25 0 0 -120z"/>
<path d="M990 1001 l0 -121 43 0 c98 0 155 37 164 108 6 44 -14 89 -50 112
-12 7 -52 15 -89 18 l-68 5 0 -122z m135 75 c30 -30 39 -65 31 -111 -8 -43
-39 -65 -88 -65 l-38 0 0 100 0 100 35 0 c25 0 44 -8 60 -24z"/>
<path d="M1345 1106 c-43 -19 -66 -49 -72 -94 -17 -129 158 -183 227 -69 39
63 14 134 -56 163 -41 17 -60 17 -99 0z m95 -33 c45 -41 51 -98 15 -141 -41
-49 -100 -41 -130 18 -24 46 -19 87 14 121 37 36 62 37 101 2z"/>
<path d="M1600 1000 l0 -120 25 0 c24 0 25 3 25 60 l0 60 35 0 c19 0 35 5 35
10 0 6 -16 10 -35 10 -33 0 -35 2 -35 35 l0 35 51 0 c36 0 49 4 47 13 -3 8
-30 13 -76 15 l-72 3 0 -121z"/>
<path d="M1815 1000 c0 -118 0 -120 23 -120 20 0 22 4 22 60 l0 60 34 0 c19 0
38 5 41 10 4 6 -10 10 -34 10 -40 0 -41 1 -41 36 l0 36 55 -4 c43 -2 54 0 50
10 -3 8 -5 16 -5 18 0 2 -33 4 -72 4 l-73 0 0 -120z"/>
</g>
</svg>
