<svg version="1.1" id="Layer_1" xmlns="http://www.w3.org/2000/svg" xmlns:xlink="http://www.w3.org/1999/xlink" x="0px" y="0px"
	 width="100%" viewBox="0 0 736 544" enable-background="new 0 0 736 544" xml:space="preserve">
<path fill="#000000" opacity="1.000000" stroke="none" 
	d="
M599.826050,294.132812 
	C607.477417,300.605225 612.806152,308.365631 617.144409,316.933380 
	C621.657776,325.846771 626.115234,334.842255 632.801819,342.404968 
	C637.284424,347.475006 642.272827,351.853821 649.691956,351.794098 
	C651.311462,351.781067 653.463379,351.598206 653.602661,353.841980 
	C653.740540,356.063049 651.617737,356.123230 649.991760,356.390686 
	C632.158630,359.324280 610.250793,352.809601 597.626343,334.352478 
	C590.811584,324.389221 586.732849,313.011658 580.723145,302.637756 
	C575.180969,293.070679 568.170410,285.419922 556.843018,282.925598 
	C556.355347,282.818207 555.878723,282.654510 555.388000,282.567749 
	C544.139221,280.578186 543.135559,281.412628 543.137268,292.718597 
	C543.139771,308.880066 543.112549,325.041595 543.153381,341.202972 
	C543.170898,348.141724 544.730469,349.617371 551.741394,349.681091 
	C554.906250,349.709839 558.072144,349.698975 561.235535,349.781525 
	C562.436890,349.812897 563.682800,350.154053 563.781189,351.618134 
	C563.881897,353.116577 562.618713,353.533813 561.461731,353.737640 
	C560.322876,353.938293 559.142822,353.965576 557.980835,353.965851 
	C539.153625,353.970306 520.326355,353.958344 501.499146,353.949524 
	C501.165955,353.949371 500.826538,353.982330 500.500580,353.931854 
	C498.512543,353.623962 495.256836,354.531769 495.272827,351.699280 
	C495.290405,348.597137 498.584412,349.891022 500.511749,349.737457 
	C503.161011,349.526337 505.842102,349.597351 508.504364,349.692749 
	C512.882324,349.849579 514.812622,347.278290 515.552429,343.452637 
	C515.801697,342.163574 515.661438,340.794830 515.661560,339.462524 
	C515.664856,297.642487 515.668274,255.822449 515.659058,214.002411 
	C515.657166,205.310287 514.497253,204.158676 505.938843,204.145081 
	C503.439667,204.141113 500.938171,204.192047 498.442200,204.098511 
	C496.833435,204.038223 494.616486,204.224411 494.726746,201.882523 
	C494.832092,199.645126 497.039551,199.974747 498.643799,199.820602 
	C499.139160,199.772995 499.642731,199.809372 500.142548,199.809692 
	C520.969177,199.822922 541.797913,199.657822 562.621704,199.909363 
	C577.843750,200.093201 592.829590,201.858429 606.825378,208.633469 
	C620.950684,215.471130 626.758728,227.387222 626.758118,242.263870 
	C626.757446,257.429352 618.949158,267.981262 605.356262,274.409576 
	C596.874939,278.420563 587.722290,279.989258 577.351807,281.702332 
	C586.074890,285.073181 593.369324,288.526337 599.826050,294.132812 
M542.393921,226.501999 
	C542.397644,241.808517 542.397949,257.115021 542.408691,272.421539 
	C542.410461,274.924683 542.050964,277.716461 545.812988,277.830750 
	C557.657776,278.190674 569.416077,278.187195 580.546326,273.032745 
	C594.112610,266.750122 601.664551,253.674850 600.638245,237.694321 
	C599.677185,222.730362 591.009277,211.696518 576.893188,206.972778 
	C567.514893,203.834457 557.903809,203.998627 548.257080,204.306595 
	C544.046082,204.441025 542.557678,207.308426 542.458557,211.029785 
	C542.330078,215.851440 542.406189,220.678574 542.393921,226.501999 
z"/>
<path fill="#000000" opacity="1.000000" stroke="none" 
	d="
M209.014328,342.122986 
	C192.613098,350.488739 175.330811,353.643707 157.526245,353.896210 
	C135.544876,354.207916 113.555733,353.973053 91.569954,353.973022 
	C90.903763,353.973022 90.230431,354.018280 89.572746,353.939545 
	C87.708145,353.716217 84.822411,354.374664 84.854172,351.674561 
	C84.888527,348.754791 87.850937,349.810455 89.636444,349.717682 
	C92.959030,349.545044 96.300194,349.752533 99.626305,349.619263 
	C103.372536,349.469116 105.373474,347.342529 105.679405,343.640198 
	C105.775162,342.481262 105.730606,341.309784 105.730629,340.144043 
	C105.731468,298.337219 105.734337,256.530426 105.725494,214.723618 
	C105.723480,205.192230 104.797928,204.311615 95.030327,204.315323 
	C92.865067,204.316147 90.697685,204.362930 88.535255,204.282074 
	C86.931175,204.222092 84.701981,204.529282 84.648552,202.241776 
	C84.586769,199.596466 87.007454,200.021820 88.757973,199.847275 
	C89.252907,199.797897 89.756584,199.834274 90.256248,199.834412 
	C114.074409,199.840698 137.893860,199.697220 161.710297,199.902649 
	C179.902390,200.059555 197.547424,203.148438 213.590378,212.280090 
	C241.340454,228.075394 251.491089,256.901855 248.701736,284.816406 
	C246.096497,310.888550 232.025085,329.494476 209.014328,342.122986 
M219.570145,259.925690 
	C218.923981,256.832001 218.455826,253.688309 217.603134,250.652634 
	C211.473785,228.831238 199.794891,211.963791 176.537491,205.975174 
	C163.277847,202.560928 149.693985,204.718765 136.257019,204.406708 
	C133.577301,204.344482 133.309937,206.593445 133.314087,208.734482 
	C133.324387,214.063660 133.306152,219.392899 133.305008,224.722107 
	C133.296555,264.191711 133.280350,303.661316 133.291382,343.130920 
	C133.293121,349.387512 133.617020,349.682434 139.758179,349.710693 
	C146.086502,349.739838 152.415237,349.746826 158.743484,349.709595 
	C185.626740,349.551422 206.837219,334.491638 215.650269,309.047821 
	C221.089890,293.343262 222.029587,277.185059 219.570145,259.925690 
z"/>
<path fill="#000000" opacity="1.000000" stroke="none" 
	d="
M473.160919,225.889633 
	C496.394165,256.512024 496.958893,297.024780 474.288025,326.890686 
	C461.834320,343.296722 444.791840,352.494263 424.557648,355.760925 
	C398.703461,359.934845 374.673370,355.634186 353.968079,338.858459 
	C335.426910,323.836151 326.395782,303.859894 325.587250,280.082916 
	C324.722382,254.649902 332.844055,232.898224 352.371002,216.103561 
	C365.693665,204.645081 381.523468,199.106873 398.939423,197.640076 
	C418.361572,196.004318 436.714172,199.178970 453.702240,209.085510 
	C461.134033,213.419357 467.367706,219.126236 473.160919,225.889633 
M356.110413,255.578766 
	C353.928864,268.466553 353.634552,281.402222 355.415405,294.346893 
	C357.225891,307.506653 360.932617,320.051270 368.516266,331.153870 
	C389.390289,361.713776 431.647369,360.068237 449.970703,327.903656 
	C461.032806,308.485352 462.947418,287.263031 461.236755,265.518524 
	C460.156738,251.789795 456.924042,238.577576 449.830811,226.578476 
	C433.930908,199.681686 401.553772,192.781265 378.460693,211.712982 
	C365.017914,222.733398 359.450348,238.212387 356.110413,255.578766 
z"/>
<path fill="#000000" opacity="1.000000" stroke="none" 
	d="
M300.400757,238.000107 
	C300.388550,271.140594 300.370911,303.781067 300.365509,336.421539 
	C300.363403,349.217804 300.857941,349.647430 313.475220,349.763916 
	C315.919189,349.786469 318.864136,348.653076 320.677277,351.609833 
	C319.865601,354.360748 317.621643,353.969330 315.752167,353.973663 
	C296.767609,354.017853 277.782898,354.021729 258.798431,353.961151 
	C256.970062,353.955322 254.117081,354.599121 254.171371,351.687012 
	C254.218231,349.173096 256.874756,349.826416 258.579437,349.751801 
	C261.239105,349.635437 263.909271,349.641602 266.571228,349.721680 
	C271.150879,349.859406 273.272491,347.431458 273.643219,343.126221 
	C273.742950,341.967957 273.703033,340.796448 273.703003,339.631012 
	C273.701874,297.664673 273.704773,255.698349 273.688385,213.732010 
	C273.685089,205.339569 272.518890,204.206985 264.198669,204.186386 
	C261.534698,204.179779 258.868225,204.201904 256.207977,204.090485 
	C255.016388,204.040573 253.811707,203.618759 253.730667,202.144547 
	C253.645493,200.594574 254.900009,200.243423 256.065643,200.093628 
	C257.380127,199.924698 258.721893,199.926498 260.051819,199.925674 
	C278.203888,199.914490 296.355988,199.915695 314.508057,199.914047 
	C315.007660,199.914001 315.511871,199.872543 316.006012,199.925018 
	C317.753784,200.110626 320.294556,199.701706 320.198334,202.237289 
	C320.101135,204.797150 317.510193,204.136490 315.814758,204.223267 
	C313.323364,204.350784 310.819946,204.220627 308.322662,204.261108 
	C302.429413,204.356613 300.518005,206.116104 300.433105,212.021149 
	C300.310944,220.512543 300.400848,229.006958 300.400757,238.000107 
z"/>
</svg>