<?xml version="1.0" standalone="no"?>
<!DOCTYPE svg PUBLIC "-//W3C//DTD SVG 20010904//EN"
 "http://www.w3.org/TR/2001/REC-SVG-20010904/DTD/svg10.dtd">
<svg version="1.0" xmlns="http://www.w3.org/2000/svg"
 width="227.000000pt" height="222.000000pt" viewBox="0 0 227.000000 222.000000"
 preserveAspectRatio="xMidYMid meet">

<g transform="translate(0.000000,222.000000) scale(0.100000,-0.100000)"
fill="#000000" stroke="none">
<path d="M590 2200 c0 -19 7 -20 110 -20 l110 0 0 -825 0 -825 -110 0 c-103 0
-110 -1 -110 -20 0 -20 7 -20 360 -20 353 0 360 0 360 20 0 19 -7 20 -125 20
l-125 0 0 389 c0 347 2 390 16 402 21 17 3 38 357 -426 l274 -360 -108 -3
c-101 -2 -109 -4 -109 -22 0 -20 9 -20 380 -20 373 0 380 0 380 20 0 18 -7 20
-86 20 -61 0 -94 5 -112 16 -15 9 -194 232 -398 496 l-372 481 157 152 c237
230 418 397 462 427 51 34 146 65 227 74 52 5 62 10 62 25 0 18 -14 19 -320
19 -307 0 -320 -1 -320 -19 0 -17 10 -19 105 -23 154 -5 165 -24 79 -135 -45
-59 -652 -653 -666 -653 -5 0 -8 178 -8 395 l0 395 125 0 c118 0 125 1 125 20
0 20 -7 20 -360 20 -353 0 -360 0 -360 -20z"/>
<path d="M2211 2194 c0 -11 3 -14 6 -6 3 7 2 16 -1 19 -3 4 -6 -2 -5 -13z"/>
<path d="M2244 2200 c2 -16 20 -14 24 2 3 10 2 10 -6 -1 -7 -9 -11 -10 -15 -2
-4 7 -5 8 -3 1z"/>
<path d="M309 1835 c-113 -41 -198 -120 -253 -235 -153 -318 42 -710 352 -710
71 0 128 21 206 73 44 30 69 24 80 -18 4 -14 11 -25 16 -25 6 0 10 60 10 155
0 153 -11 201 -25 108 -10 -70 -38 -126 -90 -182 -62 -66 -129 -94 -209 -89
-110 7 -175 73 -217 220 -21 72 -24 104 -23 238 2 225 39 346 128 413 123 93
298 40 374 -113 17 -33 33 -78 37 -100 14 -81 25 -36 25 100 0 77 -3 140 -8
140 -4 0 -12 -10 -17 -22 -15 -34 -59 -35 -102 -2 -78 59 -200 80 -284 49z"/>
<path d="M334 276 c-121 -53 -100 -237 31 -262 37 -7 105 11 105 28 0 6 -9 7
-22 3 -71 -25 -139 1 -165 63 -21 50 -2 107 46 139 40 27 71 29 111 8 17 -9
31 -11 35 -5 8 13 -48 40 -82 40 -15 -1 -42 -7 -59 -14z"/>
<path d="M710 145 c0 -83 4 -135 10 -135 6 0 10 52 10 135 0 83 -4 135 -10
135 -6 0 -10 -52 -10 -135z"/>
<path d="M945 270 c3 -5 10 -10 16 -10 5 0 9 5 9 10 0 6 -7 10 -16 10 -8 0
-12 -4 -9 -10z"/>
<path d="M1240 145 c0 -79 4 -135 10 -135 5 0 10 28 12 62 2 34 8 63 14 65 7
2 33 -26 58 -62 41 -57 66 -79 66 -59 0 3 -23 37 -51 76 l-50 69 51 60 c32 36
46 59 37 59 -8 0 -40 -28 -71 -62 l-55 -63 -1 63 c0 34 -4 62 -10 62 -6 0 -10
-52 -10 -135z"/>
<path d="M1440 145 c0 -83 4 -135 10 -135 6 0 10 52 10 135 0 83 -4 135 -10
135 -6 0 -10 -52 -10 -135z"/>
<path d="M1710 270 c0 -5 5 -10 10 -10 6 0 10 5 10 10 0 6 -4 10 -10 10 -5 0
-10 -4 -10 -10z"/>
<path d="M528 175 c-33 -18 -52 -72 -39 -108 19 -49 84 -72 132 -47 13 7 19 7
19 0 0 -5 5 -10 10 -10 6 0 10 35 10 85 0 50 -4 85 -10 85 -5 0 -10 -5 -10
-11 0 -5 -10 -3 -22 5 -28 20 -55 20 -90 1z m90 -21 c27 -19 30 -78 5 -106
-25 -28 -77 -24 -102 8 -27 35 -26 59 4 89 28 29 61 32 93 9z"/>
<path d="M1050 180 c-8 -5 -23 -7 -32 -4 -16 5 -18 -3 -18 -80 0 -51 4 -86 10
-86 6 0 10 27 10 60 0 47 4 64 20 80 45 45 80 10 80 -78 0 -35 4 -62 10 -62 6
0 10 28 10 64 0 46 -5 69 -17 84 -22 25 -53 35 -73 22z"/>
<path d="M1539 175 c-14 -8 -32 -27 -38 -43 -35 -84 66 -158 139 -102 31 23
20 38 -12 16 -30 -21 -71 -20 -91 2 -31 35 -21 42 58 42 68 0 75 2 75 19 0 29
-41 70 -75 76 -17 3 -41 -1 -56 -10z m88 -27 c13 -12 23 -25 23 -30 0 -4 -29
-8 -65 -8 -69 0 -78 7 -45 40 26 26 58 25 87 -2z"/>
<path d="M1815 181 c-11 -5 -26 -6 -32 -4 -10 4 -13 -16 -13 -81 0 -51 4 -86
10 -86 6 0 10 28 10 63 0 51 4 68 20 82 16 15 25 16 45 7 21 -10 24 -18 27
-77 2 -37 7 -64 13 -63 16 4 11 127 -6 142 -20 19 -50 26 -74 17z"/>
<path d="M776 123 c15 -32 31 -70 37 -85 6 -16 14 -28 18 -28 6 0 79 150 79
163 0 23 -20 -1 -45 -53 -16 -33 -31 -60 -34 -60 -4 0 -18 27 -33 60 -14 33
-31 60 -37 60 -6 0 1 -26 15 -57z"/>
<path d="M940 95 c0 -47 4 -85 9 -85 5 0 11 38 13 85 2 63 0 85 -9 85 -10 0
-13 -24 -13 -85z"/>
<path d="M1710 95 c0 -50 4 -85 10 -85 6 0 10 35 10 85 0 50 -4 85 -10 85 -6
0 -10 -35 -10 -85z"/>
</g>
</svg>
